<svg width="41" height="40" viewBox="0 0 41 40" fill="none" xmlns="http://www.w3.org/2000/svg">
<g clip-path="url(#clip0_102_657)">
<path d="M34.1842 0H6.81579C3.32768 0 0.5 2.82768 0.5 6.31579V33.6842C0.5 37.1723 3.32768 40 6.81579 40H34.1842C37.6723 40 40.5 37.1723 40.5 33.6842V6.31579C40.5 2.82768 37.6723 0 34.1842 0Z" fill="url(#paint0_radial_102_657)"/>
<path d="M38.1316 1.38685C35.3605 8.33949 30.2895 15.9342 23.3632 22.8605C16.4369 29.7869 8.83949 34.8579 1.88685 37.6316C0.986707 36.5131 0.497214 35.1199 0.500012 33.6842V6.3158C0.500012 4.64075 1.16542 3.0343 2.34986 1.84986C3.5343 0.665424 5.14075 1.19279e-05 6.8158 1.19279e-05H34.1842C35.6199 -0.00278595 37.0131 0.486707 38.1316 1.38685Z" fill="white" fill-opacity="0.0627451"/>
<path d="M17.9842 21.3606H15.3684C14.9553 21.3606 14.8105 21.2106 14.8105 20.7975V17.6054C14.8105 17.1948 14.9658 17.0396 15.3711 17.0396H17.9842V14.7369C17.9532 13.7026 18.2014 12.679 18.7027 11.7738C19.2237 10.8599 20.0587 10.166 21.0527 9.82115C21.6977 9.58646 22.3794 9.46882 23.0658 9.47378H25.6527C26.0237 9.47378 26.179 9.63694 26.179 10.0001V13.0027C26.179 13.379 26.0211 13.529 25.6527 13.529C24.9448 13.529 24.2369 13.529 23.5316 13.558C22.8263 13.5869 22.4421 13.908 22.4421 14.6448C22.4263 15.4343 22.4421 16.208 22.4421 17.0133H25.4816C25.9132 17.0133 26.0605 17.1606 26.0605 17.5948V20.7685C26.0605 21.1975 25.9237 21.3343 25.4895 21.3343H22.4263V29.8975C22.4263 30.3554 22.2816 30.5001 21.8316 30.5001H18.5369C18.1395 30.5001 17.9842 30.3448 17.9842 29.9475V21.3606Z" fill="white"/>
</g>
<defs>
<radialGradient id="paint0_radial_102_657" cx="0" cy="0" r="1" gradientUnits="userSpaceOnUse" gradientTransform="translate(20.5 20) scale(20)">
<stop stop-color="#42A5F5"/>
<stop offset="1" stop-color="#1565C0"/>
</radialGradient>
<clipPath id="clip0_102_657">
<rect width="40" height="40" fill="white" transform="translate(0.5)"/>
</clipPath>
</defs>
</svg>
