<svg width="24" height="27" viewBox="0 0 24 27" fill="none" xmlns="http://www.w3.org/2000/svg">
<path d="M5.84279 7.56789C9.2432 4.16748 14.7564 4.16748 18.1568 7.56789C21.5572 10.9683 21.5572 16.4815 18.1568 19.8819L16.9698 21.0558C16.0949 21.9144 14.9598 23.0184 13.5639 24.3679C12.6917 25.2113 11.3079 25.2112 10.4358 24.3677L6.94466 20.9718C6.5059 20.541 6.13863 20.1777 5.84279 19.8819C2.44238 16.4815 2.44238 10.9683 5.84279 7.56789ZM17.0961 8.62855C14.2815 5.81392 9.71807 5.81392 6.90345 8.62855C4.08882 11.4432 4.08882 16.0066 6.90345 18.8212L8.39052 20.2887C9.20943 21.0901 10.2389 22.0905 11.4786 23.2895C11.7693 23.5706 12.2305 23.5707 12.5213 23.2896L15.9162 19.9881C16.3851 19.5278 16.7785 19.1388 17.0961 18.8212C19.9107 16.0066 19.9107 11.4432 17.0961 8.62855ZM11.9998 10.9985C13.6575 10.9985 15.0013 12.3424 15.0013 14.0001C15.0013 15.6578 13.6575 17.0016 11.9998 17.0016C10.3421 17.0016 8.99823 15.6578 8.99823 14.0001C8.99823 12.3424 10.3421 10.9985 11.9998 10.9985ZM11.9998 12.4985C11.1705 12.4985 10.4982 13.1708 10.4982 14.0001C10.4982 14.8294 11.1705 15.5016 11.9998 15.5016C12.8291 15.5016 13.5013 14.8294 13.5013 14.0001C13.5013 13.1708 12.8291 12.4985 11.9998 12.4985Z" fill="white"/>
</svg>
