<svg width="24" height="24" viewBox="0 0 24 24" fill="none" xmlns="http://www.w3.org/2000/svg">
<path d="M7.39682 2.16712C6.14717 1.85055 4.84022 1.98521 3.81551 2.55855C2.7725 3.14211 2.04029 4.17556 2.00417 5.56026C1.94777 7.72187 2.44878 10.6229 4.43607 14.0297C6.39787 17.3927 8.56427 19.4084 10.361 20.607C11.4962 21.3643 12.7511 21.3842 13.8227 20.8904C14.8776 20.4043 15.7349 19.4341 16.1801 18.2305C16.4041 17.6246 16.3513 16.9511 16.0357 16.3876L14.8915 14.3443C14.1639 13.045 12.5931 12.476 11.2022 13.0081L10.4034 13.3136C10.0163 13.4617 9.66026 13.3936 9.45794 13.1948C8.7797 12.5286 8.29518 11.6241 8.07536 10.6496C8.00624 10.3432 8.14665 9.9809 8.48588 9.72489L9.20724 9.18051C10.4135 8.27019 10.7543 6.60472 10.0027 5.29371L8.83645 3.25961C8.52444 2.71542 8.00491 2.32116 7.39682 2.16712ZM3.20376 5.59156C3.22796 4.66387 3.69734 3.99971 4.40143 3.60577C5.12381 3.2016 6.10945 3.07889 7.10214 3.33037C7.39497 3.40456 7.64516 3.59441 7.79541 3.85648L8.96165 5.89057C9.41264 6.67719 9.20814 7.67646 8.48438 8.22265L7.76303 8.76704C7.13999 9.23722 6.70862 10.0441 6.90477 10.9137C7.1708 12.093 7.76023 13.2094 8.61709 14.0509C9.24273 14.6654 10.1353 14.7011 10.8321 14.4344L11.631 14.1289C12.4656 13.8097 13.4079 14.151 13.8445 14.9306L14.9887 16.9739C15.1327 17.2308 15.1567 17.538 15.0546 17.8142C14.7063 18.7558 14.0533 19.4629 13.3205 19.8006C12.6045 20.1305 11.7944 20.1208 11.0269 19.6087C9.38201 18.5114 7.34238 16.6303 5.47261 13.425C3.59652 10.2089 3.15324 7.52776 3.20376 5.59156ZM14.8457 2.10281C14.556 1.94188 14.1907 2.04624 14.0298 2.33591C13.8689 2.62559 13.9733 2.99087 14.2629 3.15179L14.7236 3.40777C17.6456 5.03112 19.5869 7.98316 19.9195 11.3092L19.9573 11.687C19.9902 12.0167 20.2843 12.2573 20.6139 12.2243C20.9437 12.1914 21.1843 11.8973 21.1513 11.5676L21.1135 11.1898C20.7417 7.47245 18.5723 4.17311 15.3065 2.35878L14.8457 2.10281ZM13.4399 5.31862C13.6104 5.03447 13.9789 4.94233 14.2631 5.11282L14.412 5.20218C16.3716 6.37799 17.717 8.35407 18.0927 10.6083L18.1461 10.9287C18.2006 11.2555 17.9798 11.5647 17.6529 11.6192C17.3261 11.6736 17.0169 11.4528 16.9625 11.126L16.9091 10.8056C16.5912 8.89816 15.4527 7.22609 13.7946 6.23118L13.6457 6.14182C13.3615 5.97132 13.2693 5.60277 13.4399 5.31862Z" fill="white"/>
</svg>
